<svg xmlns="http://www.w3.org/2000/svg" xmlns:xlink="http://www.w3.org/1999/xlink" version="1.1" width="495pt" height="177pt" viewBox="0 0 495 177">
<defs>
<clipPath id="clip_0">
<path transform="matrix(1,0,0,-1,-175,427)" d="M0 0H841.92V594.95999H0Z"/>
</clipPath>
<clipPath id="clip_1">
<path transform="matrix(.24,0,0,.24,-175,-167.95996)" d="M116.66667 116.66667H3389.8543V1957.8346H116.66667Z" fill-rule="evenodd"/>
</clipPath>
<g id="font_2_74">
<path transform="matrix(.000926,0,0,-.000926,0,0)" d="M72 0H237L235-619H237L481 0H649L882-619H884L882 0H1050V-778H785L568-202H566L338-778H72V0Z"/>
</g>
<g id="font_2_81">
<path transform="matrix(.000926,0,0,-.000926,0,0)" d="M439 15C751 15 825-74 825-389 825-704 751-793 439-793 127-793 53-704 53-389 53-74 127 15 439 15ZM231-389C231-619 253-644 439-644 623-644 645-619 645-389 645-159 623-134 439-134 253-134 231-159 231-389Z"/>
</g>
<g id="font_2_68">
<path transform="matrix(.000926,0,0,-.000926,0,0)" d="M72 0H630V-149H247V-778H72V0Z"/>
</g>
<g id="font_2_43">
<path transform="matrix(.000926,0,0,-.000926,0,0)" d="M443 15C726 15 805-59 805-248V-436H399V-294H637V-245C637-165 614-134 443-134 253-134 231-159 231-389 231-619 253-644 442-644 599-644 628-617 628-527V-526H799V-527C799-714 729-793 443-793 127-793 53-704 53-389 53-74 127 15 443 15Z"/>
</g>
<g id="font_2_2">
<path transform="matrix(.000926,0,0,-.000926,0,0)" d="M4 0H185L242-153H606L662 0H843L543-778H304L4 0ZM293-293 424-646H426L555-293H293Z"/>
</g>
<g id="font_3_142">
<path transform="matrix(.000926,0,0,-.000926,0,0)" d="M71 0H152V-135H71V0Z"/>
</g>
<g id="font_4_205">
<path transform="matrix(.000926,0,0,-.000926,0,0)" d="M-18 202H34C123 202 153 170 153 75V-547H75V73C75 120 63 132 20 132H-18V202ZM75-654H153V-778H75V-654Z"/>
</g>
<g id="font_4_212">
<path transform="matrix(.000926,0,0,-.000926,0,0)" d="M75 0H153V-778H75V0Z"/>
</g>
<g id="font_4_2">
<path transform="matrix(.000926,0,0,-.000926,0,0)" d="M9 0H97L175-181H629L707 0H797L461-778H345L9 0ZM208-258 401-707H403L596-258H208Z"/>
</g>
<g id="font_4_1">
</g>
<g id="font_4_218">
<path transform="matrix(.000926,0,0,-.000926,0,0)" d="M75 0H154V-322C154-441 187-482 312-482 435-482 450-434 450-329V0H529V-322C529-440 562-482 690-482 811-482 826-434 826-329V0H905V-332C905-485 867-554 708-554 597-554 538-525 515-452H514C493-517 448-554 334-554 218-554 174-519 155-461H153V-547H75V0Z"/>
</g>
<g id="font_4_225">
<path transform="matrix(.000926,0,0,-.000926,0,0)" d="M324 7C541 7 594-61 594-274 594-486 541-554 324-554 108-554 56-486 56-274 56-61 108 7 324 7ZM136-274C136-442 167-481 324-481 483-481 513-442 513-274 513-105 483-67 324-67 167-67 136-105 136-274Z"/>
</g>
<g id="font_4_170">
<path transform="matrix(.000926,0,0,-.000926,0,0)" d="M326 7C504 7 571-35 571-176V-183H493V-178C493-85 450-62 327-62 165-62 136-98 135-248H572V-308C572-495 514-554 319-554 107-554 56-486 56-273 56-60 107 7 326 7ZM135-317C137-448 172-485 319-485 458-485 493-450 493-332V-317H135Z"/>
</g>
<g id="font_4_160">
<path transform="matrix(.000926,0,0,-.000926,0,0)" d="M313 7C496 7 575-35 575-214V-219H496V-217C496-89 450-67 313-67 170-67 136-103 136-274 136-444 170-481 313-481 439-481 494-461 494-343V-341H573V-346C573-512 489-554 313-554 113-554 56-487 56-274 56-60 113 7 313 7Z"/>
</g>
<g id="font_3_2">
<path transform="matrix(.000926,0,0,-.000926,0,0)" d="M280 7C403 7 449-30 469-86H471V0H550V-547H471V-227C471-106 434-66 302-66 186-66 149-107 149-210V-547H71V-192C71-58 126 7 280 7Z"/>
</g>
<g id="font_4_143">
<path transform="matrix(.000926,0,0,-.000926,0,0)" d="M264 7C407 7 440-30 461-81H462V0H540V-363C540-507 479-554 302-554 144-554 68-518 68-387V-377H146V-381C146-470 194-486 303-486 425-486 462-460 462-359V-323H286C121-323 49-281 49-160 49-38 118 7 264 7ZM128-161C128-233 168-255 292-255H463V-203C463-100 419-62 283-62 174-62 128-82 128-161Z"/>
</g>
<g id="font_4_241">
<path transform="matrix(.000926,0,0,-.000926,0,0)" d="M74 0H153V-314C153-434 197-476 323-476H385V-548H325C232-548 177-516 155-453H153V-547H74V0Z"/>
</g>
<g id="font_4_184">
<path transform="matrix(.000926,0,0,-.000926,0,0)" d="M325 211C528 211 578 154 578 10V-547H500V-461H499C476-519 436-554 294-554 107-554 57-485 57-280 57-75 109-7 293-7 439-7 472-39 497-96H498V5C498 107 474 141 325 141 180 141 151 119 151 38V37H73V42C73 174 136 211 325 211ZM138-280C138-447 169-482 318-482 463-482 500-441 500-323V-237C500-119 463-78 318-78 169-78 138-115 138-280Z"/>
</g>
<g id="font_4_219">
<path transform="matrix(.000926,0,0,-.000926,0,0)" d="M75 0H153V-320C153-441 191-482 325-482 444-482 481-440 481-337V0H560V-355C560-489 504-554 347-554 222-554 175-517 155-461H153V-547H75V0Z"/>
</g>
<g id="font_4_252">
<path transform="matrix(.000926,0,0,-.000926,0,0)" d="M246 0H348V-70H271C198-70 181-90 181-158V-477H348V-547H181V-686H103V-547H26V-477H103V-141C103-43 140 0 246 0Z"/>
</g>
<g id="font_4_192">
<path transform="matrix(.000926,0,0,-.000926,0,0)" d="M75 0H153V-547H75V0ZM75-654H153V-778H75V-654Z"/>
</g>
<g id="font_4_189">
<path transform="matrix(.000926,0,0,-.000926,0,0)" d="M75-778V0H153V-320C153-441 191-482 325-482 444-482 481-440 481-337V0H560V-355C560-489 504-554 347-554 222-554 175-517 155-461H153V-778H75Z"/>
</g>
<g id="font_4_245">
<path transform="matrix(.000926,0,0,-.000926,0,0)" d="M300 7C401 7 465-3 502-36 531-61 544-98 544-155 544-205 534-246 506-271 474-299 421-309 300-316 209-321 175-327 157-342 143-354 137-368 137-401 137-429 144-448 158-461 181-482 224-486 291-486 353-486 399-480 420-460 434-448 443-427 443-388V-387H521V-394C521-444 512-480 487-506 452-540 396-554 291-554 196-554 135-544 98-510 71-486 58-450 58-396 58-343 70-309 95-286 124-260 177-249 285-243 386-238 423-231 442-216 457-204 465-184 465-150 465-120 458-100 442-86 419-65 372-62 300-62 218-62 180-68 158-88 140-105 132-128 132-165V-178H53V-159C53-104 64-72 89-45 125-8 181 7 300 7Z"/>
</g>
<g id="font_4_183">
<path transform="matrix(.000926,0,0,-.000926,0,0)" d="M104-619V-547H27V-477H104V0H183V-477H319V-547H183V-619C183-690 201-708 268-708H340V-778H257C143-778 104-737 104-619Z"/>
</g>
</defs>
<g clip-path="url(#clip_0)">
<g clip-path="url(#clip_1)">

<!-- background -->
<path transform="matrix(.6137227,0,0,.6137227,-147,-139.95996)" d="M0 0H1280V720H0Z" class="bg" fill="none"/>

<!-- color elements -->
<path transform="matrix(.6137227,0,0,.6137227,-147,-139.95996)" d="M487.695 361.481 489.959 358.165C523.725 306.77 534.954 259.714 514.29 239.05 493.627 218.386 446.571 229.616 395.176 263.382L391.86 265.645 397.972 270.117C413.211 281.809 428.483 295.17 443.327 310.014 458.17 324.857 471.531 340.129 483.223 355.368L487.695 361.481Z" fill="#389826" fill-rule="evenodd" id="green"/>
<path transform="matrix(.4339676,-.4339676,-.4339676,-.4339676,139.24576,198.98615)" d="M38.4218 14.6324C47.4252 5.21024 57.3239 0 67.7144 0 96.2881 0 121.142 39.4026 133.886 97.4456L135.429 105.369 127.996 104.217C108.953 101.709 88.7062 100.358 67.7144 100.358 46.7225 100.358 26.4759 101.709 7.43308 104.217L0 105.369 1.54266 97.4457C9.6522 60.5092 22.6661 31.1213 38.4218 14.6324Z" fill="#4063d8" fill-rule="evenodd" id="blue"/>
<path transform="matrix(.4339676,-.4339676,-.4339676,-.4339676,38.759126,202.1726)" d="M116.719 16.4008 116.322 19.0871 115.82 24.4811 116.322 19.0871 116.719 16.4008ZM14.789 45.475C33.8352 27.659 69.9097 13.3866009 114.94 5.85112L118.353 5.3569 132.23 3.34737C149.909 1.17188 168.705 0 188.193 0 207.681-.000074789899 226.477 1.17196 244.156 3.34737L250.48 4.2631 117.247 136.084 116.322 129.827 115.794 124.161 116.322 129.827 117.247 136.084 110.94 142.324 102.518 140.769C41.6553 128.435 0 103.371 0 74.457 0 64.1766 5.2659599 54.3829 14.789 45.475Z" fill="#9558b2" fill-rule="evenodd" id="purple"/>
<path transform="matrix(.4339676,-.4339676,-.4339676,-.4339676,84.796909,144.3888)" d="M.85977 142.457 8.29284 143.609C27.3356 146.117 47.5822 147.468 68.5741 147.468 89.5659 147.468 109.812 146.117 128.855 143.609L136.288 142.457 134.746 150.38C122.002 208.423 97.1478 247.826 68.574 247.826 40.0002 247.826 15.1459 208.423 2.40235 150.38L.85977 142.457ZM0 138.041 6.28727 131.821H6.28734L139.52 0 140.445 6.25663C142.644 23.7481 143.828 42.345 143.828 61.6266 143.828 80.9083 142.644 99.5053 140.445 116.997L138.414 130.727 137.915 134.104 136.288 142.457 128.855 143.609C109.812 146.117 89.566 147.468 68.574 147.468 47.5822 147.468 27.3356 146.117 8.29284 143.609L.85977 142.456V142.457H.859695L0 138.041Z" fill="#cb3c33" fill-rule="evenodd" id="red"/>

<!-- shadow elements -->
<path transform="matrix(.6137227,0,0,.6137227,-147,-139.95996)" d="M382.985 273 393.889 281.25C407.8 292.259 421.784 304.783 435.423 318.642 449.062 332.5 461.388 346.709 472.222 360.845L476 366H290L293.823 360.781C304.652 346.644 316.975 332.435 330.613 318.578 344.251 304.721 358.235 292.199 372.148 281.195L382.985 273Z" fill-opacity=".051" fill-rule="evenodd"/>
<path transform="matrix(.6137227,0,0,-.6137227,30.979569,148.48969)" d="M92.9847 0 103.889 8.1616C117.8 19.0515 131.784 31.441 145.423 45.1508 159.062 58.8605 171.388 72.9166 182.222 86.9003L186 91.9999 0 92 3.82263 86.8371C14.6525 72.8521 26.9755 58.7959 40.6131 45.0877 54.2507 31.3796 68.2346 18.9929 82.1476 8.10701L92.9847 0Z" fill-opacity=".051" fill-rule="evenodd"/>

<!-- letters -->
<use data-text="M" xlink:href="#font_2_74" transform="matrix(49.097818,0,0,-49.097818,261.40419,77.91156)" class="t"/>
<use data-text="O" xlink:href="#font_2_81" transform="matrix(49.097818,0,0,-49.097818,312.41136,77.91156)" class="t"/>
<use data-text="L" xlink:href="#font_2_68" transform="matrix(49.097818,0,0,-49.097818,352.32606,77.91156)" class="t"/>
<use data-text="G" xlink:href="#font_2_43" transform="matrix(49.097818,0,0,-49.097818,380.60276,77.91156)" class="t"/>
<use data-text="A" xlink:href="#font_2_2" transform="matrix(49.097818,0,0,-49.097818,418.92634,77.91156)" class="t"/>
<use data-text="." xlink:href="#font_3_142" transform="matrix(49.097818,0,0,-49.097818,459.6366,77.91156)" class="t"/>
<use data-text="j" xlink:href="#font_4_205" transform="matrix(49.097818,0,0,-49.097818,469.77439,77.91156)" class="t"/>
<use data-text="l" xlink:href="#font_4_212" transform="matrix(49.097818,0,0,-49.097818,480.13948,77.91156)" class="t"/>
<use data-text="A" xlink:href="#font_4_2" transform="matrix(14.729344,0,0,-14.729344,263.7382,109.825168)" class="t"/>
<use data-text=" " xlink:href="#font_4_1" transform="matrix(14.729344,0,0,-14.729344,274.226,109.825168)" class="t"/>
<use data-text="m" xlink:href="#font_4_218" transform="matrix(14.729344,0,0,-14.729344,278.18113,109.825168)" class="t"/>
<use data-text="o" xlink:href="#font_4_225" transform="matrix(14.729344,0,0,-14.729344,291.4921,109.825168)" class="t"/>
<use data-text="l" xlink:href="#font_4_212" transform="matrix(14.729344,0,0,-14.729344,300.34333,109.825168)" class="t"/>
<use data-text="e" xlink:href="#font_4_170" transform="matrix(14.729344,0,0,-14.729344,303.45286,109.825168)" class="t"/>
<use data-text="c" xlink:href="#font_4_160" transform="matrix(14.729344,0,0,-14.729344,312.0586,109.825168)" class="t"/>
<use data-text="u" xlink:href="#font_3_2" transform="matrix(14.729344,0,0,-14.729344,320.6098,109.825168)" class="t"/>
<use data-text="l" xlink:href="#font_4_212" transform="matrix(14.729344,0,0,-14.729344,329.1201,109.825168)" class="t"/>
<use data-text="a" xlink:href="#font_4_143" transform="matrix(14.729344,0,0,-14.729344,332.2296,109.825168)" class="t"/>
<use data-text="r" xlink:href="#font_4_241" transform="matrix(14.729344,0,0,-14.729344,340.5626,109.825168)" class="t"/>
<use data-text=" " xlink:href="#font_4_1" transform="matrix(14.729344,0,0,-14.729344,345.7588,109.825168)" class="t"/>
<use data-text="g" xlink:href="#font_4_184" transform="matrix(14.729344,0,0,-14.729344,349.71388,109.825168)" class="t"/>
<use data-text="e" xlink:href="#font_4_170" transform="matrix(14.729344,0,0,-14.729344,358.60603,109.825168)" class="t"/>
<use data-text="n" xlink:href="#font_4_219" transform="matrix(14.729344,0,0,-14.729344,367.2118,109.825168)" class="t"/>
<use data-text="e" xlink:href="#font_4_170" transform="matrix(14.729344,0,0,-14.729344,375.8039,109.825168)" class="t"/>
<use data-text="t" xlink:href="#font_4_252" transform="matrix(14.729344,0,0,-14.729344,384.3824,109.825168)" class="t"/>
<use data-text="i" xlink:href="#font_4_192" transform="matrix(14.729344,0,0,-14.729344,389.55128,109.825168)" class="t"/>
<use data-text="c" xlink:href="#font_4_160" transform="matrix(14.729344,0,0,-14.729344,392.6608,109.825168)" class="t"/>
<use data-text=" " xlink:href="#font_4_1" transform="matrix(14.729344,0,0,-14.729344,401.21199,109.825168)" class="t"/>
<use data-text="a" xlink:href="#font_4_143" transform="matrix(14.729344,0,0,-14.729344,405.1671,109.825168)" class="t"/>
<use data-text="l" xlink:href="#font_4_212" transform="matrix(14.729344,0,0,-14.729344,413.5001,109.825168)" class="t"/>
<use data-text="g" xlink:href="#font_4_184" transform="matrix(14.729344,0,0,-14.729344,416.60963,109.825168)" class="t"/>
<use data-text="o" xlink:href="#font_4_225" transform="matrix(14.729344,0,0,-14.729344,425.50178,109.825168)" class="t"/>
<use data-text="r" xlink:href="#font_4_241" transform="matrix(14.729344,0,0,-14.729344,434.353,109.825168)" class="t"/>
<use data-text="i" xlink:href="#font_4_192" transform="matrix(14.729344,0,0,-14.729344,439.90379,109.825168)" class="t"/>
<use data-text="t" xlink:href="#font_4_252" transform="matrix(14.729344,0,0,-14.729344,443.0133,109.825168)" class="t"/>
<use data-text="h" xlink:href="#font_4_189" transform="matrix(14.729344,0,0,-14.729344,448.18223,109.825168)" class="t"/>
<use data-text="m" xlink:href="#font_4_218" transform="matrix(14.729344,0,0,-14.729344,456.77436,109.825168)" class="t"/>
<use data-text="s" xlink:href="#font_4_245" transform="matrix(14.729344,0,0,-14.729344,263.7382,127.62311)" class="t"/>
<use data-text="e" xlink:href="#font_4_170" transform="matrix(14.729344,0,0,-14.729344,271.7984,127.62311)" class="t"/>
<use data-text="a" xlink:href="#font_4_143" transform="matrix(14.729344,0,0,-14.729344,280.40419,127.62311)" class="t"/>
<use data-text="r" xlink:href="#font_4_241" transform="matrix(14.729344,0,0,-14.729344,288.73716,127.62311)" class="t"/>
<use data-text="c" xlink:href="#font_4_160" transform="matrix(14.729344,0,0,-14.729344,293.98789,127.62311)" class="t"/>
<use data-text="h" xlink:href="#font_4_189" transform="matrix(14.729344,0,0,-14.729344,302.53907,127.62311)" class="t"/>
<use data-text="i" xlink:href="#font_4_192" transform="matrix(14.729344,0,0,-14.729344,311.1312,127.62311)" class="t"/>
<use data-text="n" xlink:href="#font_4_219" transform="matrix(14.729344,0,0,-14.729344,314.24073,127.62311)" class="t"/>
<use data-text="g" xlink:href="#font_4_184" transform="matrix(14.729344,0,0,-14.729344,322.83283,127.62311)" class="t"/>
<use data-text=" " xlink:href="#font_4_1" transform="matrix(14.729344,0,0,-14.729344,331.72499,127.62311)" class="t"/>
<use data-text="f" xlink:href="#font_4_183" transform="matrix(14.729344,0,0,-14.729344,335.68009,127.62311)" class="t"/>
<use data-text="o" xlink:href="#font_4_225" transform="matrix(14.729344,0,0,-14.729344,340.07164,127.62311)" class="t"/>
<use data-text="r" xlink:href="#font_4_241" transform="matrix(14.729344,0,0,-14.729344,348.92286,127.62311)" class="t"/>
<use data-text=" " xlink:href="#font_4_1" transform="matrix(14.729344,0,0,-14.729344,354.11903,127.62311)" class="t"/>
<use data-text="c" xlink:href="#font_4_160" transform="matrix(14.729344,0,0,-14.729344,358.07414,127.62311)" class="t"/>
<use data-text="h" xlink:href="#font_4_189" transform="matrix(14.729344,0,0,-14.729344,366.62535,127.62311)" class="t"/>
<use data-text="e" xlink:href="#font_4_170" transform="matrix(14.729344,0,0,-14.729344,375.21745,127.62311)" class="t"/>
<use data-text="m" xlink:href="#font_4_218" transform="matrix(14.729344,0,0,-14.729344,383.82319,127.62311)" class="t"/>
<use data-text="i" xlink:href="#font_4_192" transform="matrix(14.729344,0,0,-14.729344,397.13417,127.62311)" class="t"/>
<use data-text="c" xlink:href="#font_4_160" transform="matrix(14.729344,0,0,-14.729344,400.24369,127.62311)" class="t"/>
<use data-text="a" xlink:href="#font_4_143" transform="matrix(14.729344,0,0,-14.729344,408.79487,127.62311)" class="t"/>
<use data-text="l" xlink:href="#font_4_212" transform="matrix(14.729344,0,0,-14.729344,417.12788,127.62311)" class="t"/>
<use data-text=" " xlink:href="#font_4_1" transform="matrix(14.729344,0,0,-14.729344,420.2374,127.62311)" class="t"/>
<use data-text="s" xlink:href="#font_4_245" transform="matrix(14.729344,0,0,-14.729344,424.1925,127.62311)" class="t"/>
<use data-text="t" xlink:href="#font_4_252" transform="matrix(14.729344,0,0,-14.729344,432.25276,127.62311)" class="t"/>
<use data-text="r" xlink:href="#font_4_241" transform="matrix(14.729344,0,0,-14.729344,437.42164,127.62311)" class="t"/>
<use data-text="u" xlink:href="#font_3_2" transform="matrix(14.729344,0,0,-14.729344,442.9724,127.62311)" class="t"/>
<use data-text="c" xlink:href="#font_4_160" transform="matrix(14.729344,0,0,-14.729344,451.48268,127.62311)" class="t"/>
<use data-text="t" xlink:href="#font_4_252" transform="matrix(14.729344,0,0,-14.729344,460.03388,127.62311)" class="t"/>
<use data-text="u" xlink:href="#font_3_2" transform="matrix(14.729344,0,0,-14.729344,465.20277,127.62311)" class="t"/>
<use data-text="r" xlink:href="#font_4_241" transform="matrix(14.729344,0,0,-14.729344,473.71305,127.62311)" class="t"/>
<use data-text="e" xlink:href="#font_4_170" transform="matrix(14.729344,0,0,-14.729344,478.96379,127.62311)" class="t"/>
<use data-text="s" xlink:href="#font_4_245" transform="matrix(14.729344,0,0,-14.729344,487.56953,127.62311)" class="t"/>
</g>
</g>
<style xmlns="http://www.w3.org/1999/xhtml" type="text/css">
@media (prefers-color-scheme: dark) {
  .t { fill: white; }
  #green { fill: #4EC432; }
  #blue { fill: #5071DC; }
  #purple { fill: #9A62B6; }
  #red { fill: #CB3C33; }
}
</style></svg>